<svg id="Capa_1" enable-background="new 0 0 512 512" height="512" viewBox="0 0 512 512" width="512" xmlns="http://www.w3.org/2000/svg"><g><g><g><g><g><g><g><path d="m155.288 491.429c-91.315-39.114-155.288-129.801-155.288-235.429 0-141.385 114.615-256 256-256s256 114.615 256 256c0 132.674-100.927 241.776-230.194 254.715z" fill="#7982ed"/></g></g></g></g></g></g><path d="m508.29 212.329-78.15-78.15-86.056 89.896-59.406-59.406-9.789 57.046-82.734-82.734-110.295 101.088 69.896 69.896-12.385 153.948 2.613 2.91 26.988 26.691 112.834 17.201c129.267-12.939 230.194-122.041 230.194-254.715 0-14.888-1.271-29.479-3.71-43.671z" fill="#4d56b2"/><g><ellipse cx="377.194" cy="187.124" fill="#78d464" rx="74.876" ry="74.876" transform="matrix(.707 -.707 .707 .707 -21.839 321.524)"/></g><g><path d="m430.14 134.179c-14.616-14.616-33.771-21.926-52.927-21.93v149.751c19.156-.004 38.312-7.314 52.927-21.93 29.24-29.241 29.24-76.65 0-105.891z" fill="#6cbd5a"/></g><g><path d="m358.853 238.911-38.809-38.809 21.213-21.213 17.596 17.595 54.279-54.279 21.213 21.212z" fill="#fff"/></g><g><path d="m413.132 142.205-35.92 35.92v42.426l57.133-57.134z" fill="#e9ecf4"/></g><g><ellipse cx="134.806" cy="187.124" fill="#e38120" rx="74.876" ry="74.876" transform="matrix(.707 -.707 .707 .707 -92.833 150.129)"/></g><g><path d="m187.751 134.179c-14.578-14.578-33.672-21.885-52.779-21.927v149.744c19.107-.042 38.201-7.349 52.779-21.927 29.241-29.24 29.241-76.649 0-105.89z" fill="#db5e1e"/></g><path d="m182.948 160.194-21.213-21.213-26.929 26.93-26.93-26.93-21.213 21.213 26.93 26.93-26.93 26.93 21.213 21.213 26.93-26.93 26.929 26.93 21.213-21.213-26.929-26.93z" fill="#fff"/><path d="m182.948 160.194-21.213-21.213-26.763 26.764v.332 42.094.332l26.763 26.764 21.213-21.213-26.929-26.93z" fill="#e9ecf4"/><g><path d="m291.485 300.104c-11.525-.383-20.957 8.842-20.957 20.249 0 0-.026 73.548-.041 73.564l-12.589-6.521c.014-.016.036-67.748.036-67.748 0-.488.013-.973.038-1.455.646-12.253 10.73-26.109 23.837-28.114.034-.005 7.932 0 7.932 0v-112.381c0-10.658-8.64-19.297-19.298-19.297s-19.297 8.64-19.297 19.297v119.813h-7.319v-29.534c0-10.464-8.137-19.376-18.594-19.748-10.979-.39-20.001 8.394-20.001 19.285v38.792h-6.071v-21.431c0-10.033-8.133-18.166-18.166-18.166s-18.166 8.133-18.166 18.166v32.426h-6.071v-14.484c0-8.641-7.072-15.979-15.711-15.818-8.378.157-15.122 6.998-15.122 15.414v13.052 77.387 39.266h.24c1.709 19.345 13.004 35.932 29.102 44.987.013.007.022.021.022.037v14.286c30.911 13.241 64.955 20.572 100.711 20.572 8.712 0 17.321-.436 25.809-1.285 0-15.955 0-30.947 0-30.947 0-.018.01-.032.025-.039 17.195-7.686 29.214-24.941 29.214-44.961v-113.938c0-11-8.569-20.36-19.563-20.726z" fill="#f6ddce"/></g><g><path d="m291.485 300.104c-11.525-.383-20.957 8.842-20.957 20.249 0 0-.026 73.548-.041 73.564l-12.589-6.521c.014-.016.036-67.748.036-67.748 0-.488.013-.973.038-1.455.646-12.253 10.73-26.109 23.837-28.114.034-.005 7.932 0 7.932 0v-112.381c0-10.658-8.64-19.297-19.298-19.297s-19.297 8.64-19.297 19.297v119.813h-7.319v-29.534c0-10.464-8.137-19.376-18.594-19.748-10.979-.39-20.001 8.394-20.001 19.285v38.792h-2.658l1.197 200.361c16.643 3.401 34.583 5.333 52.229 5.333 8.712 0 17.321-.436 25.809-1.285 0-15.955 0-30.947 0-30.947 0-.018.01-.032.025-.039 17.195-7.686 29.214-24.941 29.214-44.961v-113.938c0-11-8.569-20.36-19.563-20.726z" fill="#eebda9"/></g></g></svg>