<svg height="512pt" viewBox="0 0 512 512.00048" width="512pt" xmlns="http://www.w3.org/2000/svg"><path d="m512 256c0 113.707031-74.136719 210.089844-176.707031 243.472656-5.078125 1.652344-10.292969-2.148437-10.292969-7.488281 0-29.027344-23.53125-52.558594-52.558594-52.558594h-186.988281c-5.265625 0-10.285156-2.171875-13.9375-5.964843-44.835937-46.59375-72.195313-110.125-71.5039062-180.050782 1.3750002-138.578125 117.8671872-253.652344 256.4492192-253.410156 141.175781.25 255.539062 114.769531 255.539062 256zm0 0" fill="#2abbc7"/><path d="m318.421875 112.125c-21.339844-5.714844-25.695313-58.648438-25.695313-58.648438l51.828126-52.289062c2.175781-2.199219 5.921874-1.1953125 6.707031 1.796875l18.738281 71.199219s-30.238281 43.660156-51.578125 37.941406zm0 0" fill="#fff5f5"/><path d="m263.882812 470.210938-77.273437-20.703126 106.117187-396.03125 77.273438 20.707032zm0 0" fill="#e31e7f"/><path d="m241.667969 464.257812c-12.269531-3.285156-19.550781-15.898437-16.261719-28.167968l86.445312-322.617188c3.289063-12.269531 15.898438-19.550781 28.167969-16.265625 12.269531 3.289063 19.550781 15.902344 16.261719 28.171875l-86.445312 322.617188c-3.285157 12.269531-15.898438 19.550781-28.167969 16.261718zm0 0" fill="#fd3d96"/><path d="m351.261719 2.984375 7.011719 26.644531-33.117188-8.875 19.398438-19.566406c2.175781-2.199219 5.917968-1.1953125 6.707031 1.796875zm0 0" fill="#012d4e"/><path d="m372.371094 189.496094c5.355468 101.402344-6.273438 203.011718-34.429688 300.617187l-2.703125 9.367188c-24.953125 8.117187-51.578125 12.519531-79.238281 12.519531-72.609375 0-138.148438-30.234375-184.738281-78.792969-17.566407-79.894531-24.316407-161.867187-19.992188-243.710937.28125-5.320313 4.664063-9.496094 9.992188-9.496094h301.117187c5.328125 0 9.710938 4.175781 9.992188 9.496094zm0 0" fill="#e8ce00"/><path d="m391.820312 208h-18.683593c-.199219-6.167969-.441407-12.335938-.765625-18.5-.28125-5.320312-4.664063-9.5-9.992188-9.5h-224.597656c-11.320312 28.132812-17.78125 60.5625-17.78125 95.097656 0 107.644532 62.679688 194.902344 140 194.902344 37.027344 0 70.695312-20.023438 95.730469-52.703125.625-3.09375 1.207031-6.195313 1.796875-9.296875h14.292968c55.230469 0 100-44.769531 100-100v-20c0-44.183594-35.816406-80-80-80zm40 100c0 33.136719-26.863281 60-60 60h-7.597656c5.746094-39.730469 8.886719-79.816406 9.347656-120h18.25c22.089844 0 40 17.910156 40 40zm0 0" fill="#fded32"/><path d="m135 290v60c0 5.523438-4.476562 10-10 10h-45c-5.523438 0-10-4.476562-10-10v-60c0-5.523438 4.476562-10 10-10h15v-100h15v100h15c5.523438 0 10 4.476562 10 10zm0 0" fill="#fff5f5"/></svg>