<svg id="Capa_1" enable-background="new 0 0 512 512" height="512" viewBox="0 0 512 512" width="512" xmlns="http://www.w3.org/2000/svg"><g><g><g><g><g><g><g><g><circle cx="256" cy="256" fill="#f1cc30" r="256"/></g></g></g></g></g></g></g><path d="m512 256c0-17.202-1.697-34.008-4.932-50.259l-100.17-100.17-68.39 101.021-101.021-101.021-132.385 132.386 104.254 104.254-104.254 63.854 101.093 101.092c16.11 3.177 32.763 4.843 49.805 4.843 141.385 0 256-114.615 256-256z" fill="#e9a226"/><g><g><g><path d="m105.101 105.571h132.386v132.386h-132.386z" fill="#e06a24"/></g><path d="m219.367 198.624-26.86-26.86 26.86-26.859-21.213-21.213-26.86 26.859-26.859-26.86-21.213 21.213 26.859 26.859-26.859 26.86 21.213 21.213 26.859-26.859 26.86 26.86z" fill="#fff"/></g><g><g><path d="m274.513 273.678h132.386v132.386h-132.386z" fill="#d24611"/></g><path d="m388.778 313.012-21.213-21.213-26.859 26.859-26.86-26.86-21.213 21.213 26.86 26.86-26.86 26.86 21.213 21.213 26.86-26.86 26.859 26.86 21.213-21.213-26.859-26.86z" fill="#e9ecf4"/></g><g><g><path d="m274.513 105.571h132.386v132.386h-132.386z" fill="#6cbd5a"/></g><g><path d="m325.864 217.412-38.915-38.916 21.214-21.212 17.701 17.701 47.385-47.384 21.213 21.213z" fill="#e9ecf4"/></g></g><g><g><path d="m105.101 273.68h132.386v132.386h-132.386z" fill="#78d464"/></g><g><path d="m156.453 385.519-38.915-38.914 21.213-21.214 17.702 17.703 47.384-47.385 21.213 21.213z" fill="#fff"/></g></g></g></g></svg>