<?xml version="1.0" encoding="UTF-8"?>
<svg width="114mm" height="33mm" version="1.1" viewBox="0 0 114 33" xmlns="http://www.w3.org/2000/svg" xmlns:cc="http://creativecommons.org/ns#" xmlns:dc="http://purl.org/dc/elements/1.1/" xmlns:rdf="http://www.w3.org/1999/02/22-rdf-syntax-ns#">
	<metadata>
		<rdf:RDF>
			<cc:Work rdf:about="">
				<dc:format>image/svg+xml</dc:format>
				<dc:type rdf:resource="http://purl.org/dc/dcmitype/StillImage"/>
				<dc:title/>
			</cc:Work>
		</rdf:RDF>
	</metadata>
	<g>
		<g>
			<path d="m7.2868 19.828c2.0476 0.7903 5.204 1.2881 7.9186 1.407l-0.4029-3.7624-6.5319-1.011 6.5319-1.0118 0.41341-3.8588c-5.3094 0.22014-9.9143 2.1515-12.576 4.9689 0.0822 0.0977-0.0477 0.19413 0.0382 0.2899 1.2661 1.2881 2.5978 2.3668 5.096 3.2043-0.17363-0.0582-0.96153-0.41376-0.48714-0.226z" fill="#f68b1a"/>
			<path d="m31.013 17.449c-2.5141 2.354-6.4391 3.9991-10.962 4.3932-0.69005 0.0603-1.3937 0.0923-2.1087 0.0923-0.21119 0-0.42702-4e-3 -0.64337-0.01l-0.0224 0.21049-0.98788 9.2246-0.98805-9.2294-0.0353-0.33038c-1.2497-0.11748-2.5203-0.31006-3.7254-0.57327-0.87437-0.18327-1.716-0.41616-2.5192-0.69177-0.0555-0.019-0.64492-0.23323-0.70366-0.25597-0.18655-0.073-0.36828-0.14745-0.54381-0.22462-1.9477-0.82372-3.6163-1.9162-4.8824-3.2043-0.0899-0.0913-0.17794-0.18397-0.26389-0.27785-0.0911 0.0973-0.18018 0.19516-0.26683 0.29404-1.1572 1.3222-1.8957 2.8253-2.0932 4.4294-0.0174 0.20464-0.0283 0.41134-0.0283 0.61908 0 5.9638 7.2121 10.798 16.109 10.798 8.8964 0 16.109-4.8345 16.109-10.798 0-1.5934-0.51814-3.1044-1.4435-4.4659z" fill="#1a3374"/>
			<path d="m25.34 13.074c-2.0476-0.79031-5.204-1.2883-7.9186-1.4072l0.40273 3.7626 6.5317 1.011-6.5317 1.0118-0.41323 3.8592c5.3094-0.22083 9.9143-2.1518 12.576-4.9694-0.0823-0.0977 0.0477-0.41117-0.0382-0.50694-1.2661-1.288-3.1485-2.3806-5.096-3.2041 0.16812 0.0735 1.0997 0.69728 0.48713 0.44304z" fill="#f68b1a"/>
		</g>
		<g fill="#1a3374">
			<path d="m1.613 15.454c2.5142-2.3539 6.439-3.9994 10.962-4.3937 0.68987-0.0599 1.3935-0.092 2.1086-0.092 0.21118 0 0.42684 4e-3 0.64354 0.01l0.0226-0.21083 0.98754-9.2243 0.98805 9.2291 0.0357 0.33004c1.2495 0.11799 2.5203 0.31058 3.725 0.57412 0.87453 0.18328 1.7162 0.41583 2.5192 0.69144 0.0558 0.0188 0.1099 0.0381 0.16485 0.0574 0.12213 0.0429 0.24167 0.0868 0.36018 0.13125 0.0596 0.0226 0.12006 0.0444 0.17846 0.0672 0.1869 0.073 0.36828 0.14814 0.54415 0.22479 1.9475 0.82373 3.6162 1.9163 4.882 3.2043 0.0903 0.0916 0.17811 0.18414 0.26389 0.27767 0.0913-0.097 0.18035-0.19482 0.26682-0.29369 1.1576-1.3221 1.8957-2.8253 2.0934-4.4295 0.0176-0.20499 0.0286-0.41135 0.0286-0.61909 0-5.9638-7.2123-10.798-16.109-10.798-8.8966 0-16.109 4.834-16.109 10.798 0 1.5934 0.51832 3.1047 1.4433 4.466z"/>
			<path d="m96.882 23.691c-2.1187-0.0558-3.7255-1.5214-4.0942-3.7341-0.26561-1.5954 0.0624-3.144 0.89952-4.2499 0.87298-1.1527 2.2496-1.7639 3.8747-1.721 0.44028 0.0119 0.84232 0.0691 1.232 0.14814-1e-3 -0.62202-1e-3 -2.0526-2e-3 -2.6357-0.54604-0.10232-1.1124-0.17467-1.6671-0.18949-3.0117-0.0794-5.4942 0.96153-6.987 2.933-1.232 1.6264-1.6778 3.7174-1.2898 6.0477 0.6053 3.6273 3.3696 5.9435 7.2178 6.0448 0.9822 0.0269 1.912-0.0596 2.7351-0.22737-3.5e-4 -0.45269-3.5e-4 -1.8414-1e-3 -2.6172-0.61598 0.13953-1.2371 0.22014-1.9175 0.20119z"/>
			<path d="m78.812 17.067c0.1154-1.7126 1.2743-3.5472 3.5419-3.5288 1.2544 0.01 2.2076 0.71762 2.3702 1.7616l5e-3 0.0305c0.0758 0.48301-0.0169 0.89745-0.27113 1.232-0.60874 0.80271-2.1546 1.1224-5.1683 1.0714-0.12678-3e-3 -0.25459-0.0672-0.34726-0.17743-0.093-0.10852-0.14125-0.25252-0.13092-0.38929zm0.44786 2.9432c4.43 0.14642 7.2581-0.52813 8.4022-2.0078 0.52882-0.68592 0.70624-1.5382 0.53847-2.6079-0.39722-2.5466-2.6269-4.208-5.6782-4.2326-3.0982-0.0244-4.8638 1.4504-5.7988 2.6929-1.2785 1.6982-1.8035 4.0137-1.4383 6.3533 0.61495 3.9253 3.2122 6.1054 7.3153 6.1381 0.93948 7e-3 3.2563-0.0885 5.1749-1.017-0.11713-0.45992-0.42271-1.6667-0.59531-2.3468-1.1834 0.51849-2.4601 0.78273-3.9023 0.76998-1.4828-0.0114-2.7013-0.4892-3.5319-1.3932-0.47542-0.5433-0.77721-1.3474-0.85886-1.8662-0.0196-0.12851 9e-3 -0.25391 0.0789-0.34417 0.0706-0.0916 0.17742-0.14056 0.29387-0.13849z"/>
			<path d="m68.046 20.684c-0.0138 0.75551 0.0131 1.3794 0.0879 1.9658 0.0317 0.24805 0.073 0.49265 0.12299 0.73484 0.37414 1.8366 2.0584 2.8884 4.4304 2.8884 0.85094 0 1.737-0.10266 2.2803-0.24908-0.0272-0.45717-0.11438-1.961-0.15434-2.6527-0.27147 0.0152-0.54604 0.0207-0.7903 0.0207-1.4383 0-1.9289-0.93087-2.0877-1.7105-0.0262-0.12299-0.0465-0.25459-0.0634-0.3893-0.0741-0.58532-0.0868-1.2612-0.0875-1.6574l0.0103-5.1613c3.5e-4 -0.23048 0.15675-0.40153 0.3669-0.40153h2.9817c0-0.0386 0-1.3076 7.1e-4 -2.5054h-2.8901c-0.12127 0-0.24495-0.0582-0.33831-0.15934-0.0786-0.0856-0.12919-0.19551-0.14228-0.30834-3e-3 -0.0208-5e-3 -0.0406-6e-3 -0.0608 0 0 0-1.8054-3.4e-4 -3.3288h-3.7224c7.1e-4 3.8318 1e-3 12.974 1e-3 12.975z"/>
			<path d="m113.66 17.578c-4e-3 -0.57395-0.0551-1.2893-0.12816-1.8991-0.0341-0.28267-0.0748-0.54278-0.11679-0.75551-0.46405-2.3525-2.033-3.7014-4.3022-3.7014h-0.19947c-1.767 0-3.2628 0.73897-4.1035 2.0276-0.0665 0.10301-0.17604 0.16226-0.29937 0.16226h-0.0627c-0.12368 0-0.24771-0.0594-0.34107-0.16226-0.0775-0.086-0.12781-0.1943-0.14125-0.30593-4e-3 -0.0229-4e-3 -0.0462-5e-3 -0.0691 0 0 3.4e-4 -3.2467 3.4e-4 -5.1658h-3.7455l5e-3 18.22h3.7579s3.5e-4 -6.598 3.5e-4 -6.598c-0.0286-3.1888 1.3849-5.4157 3.3218-5.4157 1.2671 0 2.1184 0.77411 2.3957 2.18 0.0506 0.25528 0.0916 0.51143 0.12196 0.76413 0.0517 0.42202 0.0741 0.83405 0.0679 1.2134l0.0127 7.8562h3.7658l-5e-3 -8.3512z"/>
		</g>
		<path d="m62.672 11.654c1e-3 0.75086 0.0107 11.293 0.0107 11.293 0 0.22704-0.14814 0.39757-0.35519 0.40205l-2.1887 0.042c-1.4576 0-1.9575-0.92949-2.1205-1.7095-0.0258-0.12644-0.0486-0.26355-0.0651-0.40618-0.0758-0.58118-0.0868-1.2485-0.0868-1.6399 0 0 1e-3 -7.0442 2e-3 -7.9818h-3.7231c1e-3 3.4258 2e-3 9.0274 2e-3 9.0294-0.0145 0.74276 0.0122 1.3594 0.0861 1.9406 0.0329 0.25701 0.0749 0.50746 0.12816 0.75861 0.38154 1.8366 1.9914 2.8898 4.4161 2.8898l0.59566 4e-3c0.72312 7e-3 1.7108 0.0189 2.8067-0.0289 0.12575-4e-3 0.25494 0.0517 0.35243 0.15813 0.0792 0.0858 0.12988 0.19602 0.14539 0.31006 3e-3 0.0234 4e-3 0.0493 4e-3 0.0744 0 1.5782-1.0866 2.1935-2.1067 2.3075 0 0-0.32763 0.0272-0.61151 0.0503-3.5e-4 0.48852 7.1e-4 1.8383 7.1e-4 2.4798 0.50643 0.0158 1.0928-3e-3 1.656-0.0661 2.5046-0.27768 4.172-1.5741 4.5723-3.5553 0.16984-0.84508 0.23254-1.663 0.21118-2.7461 0 0 0.0165-12.618 0.0183-13.606h-3.751z" fill="#f68b1a"/>
		<path d="m42.515 18.636c-0.01-2.7612 1.3598-4.6898 3.3319-4.6898 1.531 0 2.6842 1.1417 3.086 3.0548 0.38171 1.8214 0.01 3.9453-0.92277 5.2862-0.68954 0.98874-1.6294 1.511-2.718 1.511-1.3116 0-2.2829-0.78411-2.5931-2.0877-0.17863-0.67972-0.20326-1.2933-0.21119-1.8349l0.0272-1.2395zm-3.8375 1.1014c-2e-3 0.59221 0.0112 1.2664 0.0996 1.962 0.0293 0.23564 0.0682 0.4737 0.11851 0.71382 0.66921 3.1902 3.6463 3.8595 6.0256 3.8595 2.9791 0 5.2889-1.0545 6.6773-3.0492 1.296-1.8583 1.7217-4.4397 1.1689-7.0769-0.47594-2.272-2.1794-4.9246-5.4116-4.9246-1.7673 0-3.2636 0.73897-4.1038 2.0276-0.0665 0.10301-0.17605 0.16226-0.29921 0.16226h-0.0632c-0.12281 0-0.24753-0.0594-0.34089-0.16226-0.0775-0.086-0.12798-0.1943-0.14125-0.30593-3e-3 -0.0229-4e-3 -0.0462-4e-3 -0.0691 0 0 3.5e-4 -2.8724 2e-3 -5.1658h-3.7279c3.5e-4 5.5564 7e-4 12.029 7e-4 12.029z" fill="#f68b1a"/>
	</g>
</svg>
