<svg version="1.1" viewBox="0 0 538 147" xml:space="preserve" xmlns="http://www.w3.org/2000/svg"><defs><clipPath id="a"><path d="m0 720h720v-720h-720z"/></clipPath></defs><g transform="matrix(1.3333 0 0 -1.3333 0 960)"><g><g clip-path="url(#a)"><g transform="translate(43.644 653.95)"><path d="m0 0c0 9.158-4.208 13.738-11.139 13.738-6.806 0-11.385-4.703-11.385-13.738v-0.495h22.524zm16.955-12.87h-39.479v-0.25c0-7.054 2.97-13.49 12.746-13.49 7.798 0 18.813 0.62 23.762 1.116h0.372c1.362 0 2.351-0.62 2.351-1.982v-9.407c0-1.976-0.494-2.844-2.598-3.338-7.921-1.982-14.604-2.97-25.372-2.97-14.974 0-31.063 7.92-31.063 31.806v8.662c0 19.926 11.633 32.55 31.311 32.55 20.296 0 30.569-13.861 30.569-32.55v-7.179c0-1.853-0.99-2.968-2.599-2.968" fill="#00718f"/></g><g transform="translate(115.68 612.62)"><path d="m0 0c-3.464-0.867-9.034-1.855-16.459-1.855-17.45 0-28.837 11.138-28.837 31.31v10.396c0 20.172 11.387 31.312 28.837 31.312 7.425 0 12.995-0.991 16.459-1.856 1.857-0.495 2.6-0.992 2.6-2.847v-11.015c0-1.237-1.115-2.104-2.351-2.104h-0.249c-4.578 0.495-8.043 0.867-15.098 0.867-5.569 0-10.148-3.343-10.148-14.357v-10.396c0-11.015 4.579-14.356 10.148-14.356 7.055 0 10.52 0.373 15.098 0.866h0.249c1.236 0 2.351-0.866 2.351-2.105v-11.012c0-1.858-0.743-2.352-2.6-2.848" fill="#00718f"/></g><g transform="translate(144.64 611.88)"><path d="m0 0h-15.099c-1.361 0-2.599 1.238-2.599 2.598v89.85c0 1.363 1.238 2.476 2.599 2.476h15.099c1.362 0 2.351-1.113 2.351-2.476v-89.85c0-1.36-0.989-2.598-2.351-2.598" fill="#00718f"/></g><g transform="translate(196.89 653.95)"><path d="m0 0c0 9.158-4.209 13.738-11.138 13.738-6.807 0-11.387-4.703-11.387-13.738v-0.495h22.525zm16.955-12.87h-39.48v-0.25c0-7.054 2.971-13.49 12.748-13.49 7.797 0 18.811 0.62 23.76 1.116h0.372c1.363 0 2.352-0.62 2.352-1.982v-9.407c0-1.976-0.494-2.844-2.598-3.338-7.921-1.982-14.604-2.97-25.373-2.97-14.973 0-31.063 7.92-31.063 31.806v8.662c0 19.926 11.633 32.55 31.312 32.55 20.296 0 30.569-13.861 30.569-32.55v-7.179c0-1.853-0.99-2.968-2.599-2.968" fill="#00718f"/></g><g transform="translate(268.92 612.62)"><path d="m0 0c-3.465-0.867-9.034-1.855-16.462-1.855-17.45 0-28.835 11.138-28.835 31.31v10.396c0 20.172 11.385 31.312 28.835 31.312 7.428 0 12.997-0.991 16.462-1.856 1.854-0.495 2.598-0.992 2.598-2.847v-11.015c0-1.237-1.114-2.104-2.352-2.104h-0.246c-4.58 0.495-8.047 0.867-15.102 0.867-5.569 0-10.146-3.343-10.146-14.357v-10.396c0-11.015 4.577-14.356 10.146-14.356 7.055 0 10.522 0.373 15.102 0.866h0.246c1.238 0 2.352-0.866 2.352-2.105v-11.012c0-1.858-0.744-2.352-2.598-2.848" fill="#00718f"/></g><g transform="translate(313.94 667.81)"><path d="m0 0h-13.958v-36.757c0-4.33 1.982-5.074 7.303-5.074h9.282c1.609 0 2.598-0.742 2.598-2.105v-9.529c0-1.361-0.866-2.228-2.475-2.474-3.588-0.622-9.53-1.114-14.852-1.114-13.862 0-22.03 4.332-22.03 20.419v62.129c0 1.361 1.115 2.227 2.478 2.475l15.095 2.598h0.373c1.113 0 2.228-1.237 2.228-2.474v-13.119h13.958c1.359 0 2.472-1.114 2.472-2.475v-10.024c0-1.362-1.113-2.476-2.472-2.476" fill="#00718f"/></g><g transform="translate(343.93 611.88)"><path d="m0 0h-15.102c-1.36 0-2.472 1.113-2.472 2.475v65.965c0 1.361 1.112 2.475 2.472 2.475h15.102c1.359 0 2.475-1.114 2.475-2.475v-65.965c0-1.362-1.116-2.475-2.475-2.475" fill="#00718f"/></g><g transform="translate(400.23 612.62)"><path d="m0 0c-3.464-0.867-9.033-1.855-16.46-1.855-17.448 0-28.836 11.138-28.836 31.31v10.396c0 20.172 11.388 31.312 28.836 31.312 7.427 0 12.996-0.991 16.46-1.856 1.858-0.495 2.599-0.992 2.599-2.847v-11.015c0-1.237-1.114-2.104-2.352-2.104h-0.247c-4.577 0.495-8.043 0.867-15.098 0.867-5.57 0-10.149-3.343-10.149-14.357v-10.396c0-11.015 4.579-14.356 10.149-14.356 7.055 0 10.521 0.373 15.098 0.866h0.247c1.238 0 2.352-0.866 2.352-2.105v-11.012c0-1.858-0.741-2.352-2.599-2.848" fill="#00718f"/></g><g transform="translate(342.62 689.87)"><path d="m0 0h-11.291l-7.644 11.635-3.505-1.026-1.792 3.365 11.947 3.05 4.9-8.717c0.52-0.912 0.959-1.77 1.354-2.6h0.08c0.279 0.746 0.597 1.658 0.996 2.71l8.084 20.172 9.176-0.117z" fill="#afbd21"/></g></g></g></g></svg>
