<svg width="677" height="167" version="1.1" viewBox="0 0 1158 337.84" xmlns="http://www.w3.org/2000/svg">
	<g stroke-width="2.023" aria-label="webcourses">
		<g fill="#061081" stroke-width="2.023">
			<path d="m235.09 158.87h31.396l13.636 70.355 12.948-70.355h31.396l10.542 70.355 15.583-70.355h25.323l-28.99 115.73h-27.042l-14.896-78.719-14.552 78.719h-26.24z"/>
			<path d="m471.13 222.12h-60.73v6.4167q0 15.583 4.2396 20.854 4.2396 5.2709 11.115 5.2709 14.781 0 16.615-19.823l28.761 1.8333q-7.6771 40.334-45.948 40.334-23.604 0-35.865-15.927-12.26-15.927-12.26-42.625 0-30.136 12.948-45.948 13.063-15.927 34.948-15.927 19.708 0 32.886 14.094 13.292 13.979 13.292 51.448zm-30.479-18.677q0.11458-2.0625 0.11458-3.2084 0-22.344-15.125-22.344-14.896 0-15.01 25.552z"/>
			<path d="m487.29 118.2h31.74v51.563q9.3959-12.49 24.063-12.49 16.042 0 26.698 14.438 10.656 14.438 10.656 44.344 0 28.761-10.427 44.917-10.427 16.042-30.479 16.042-19.708 0-27.042-17.531-3.3229 5.9584-6.073 15.125h-19.136zm31.74 108.4q0 15.927 2.9792 22 2.9792 6.073 10.542 6.073 8.3646 0 11.458-8.5938 3.0938-8.7084 3.0938-29.219 0-19.823-2.9792-28.99-2.9792-9.1667-11-9.1667-14.094 0-14.094 21.198z"/>
		</g>
		<g fill="#265496">
			<path d="m682.88 201.5-30.021 1.1458q-0.6875-10.656-3.4375-16.042-2.75-5.5-9.2813-5.5-16.271 0-16.271 34.146 0 19.823 3.8958 27.729 4.0104 7.9063 11.802 7.9063 12.146 0 13.292-21.427l30.021 1.9479q-4.0104 45.604-45.375 45.604-22.344 0-34.261-15.011-11.802-15.125-11.802-44.917 0-29.563 12.375-45.032 12.49-15.469 34.948-15.469 40.563 0 44.115 44.917z"/>
			<path d="m786.81 216.74q0 60.271-46.979 60.271-47.094 0-47.094-60.271 0-60.157 47.094-60.157 46.979 0 46.979 60.157zm-33.344 0q0-22.115-3.0938-29.906-2.9792-7.7917-10.542-7.7917-7.3334 0-10.542 7.448-3.2084 7.3334-3.2084 30.25 0 21.198 2.75 29.448 2.75 8.25 11 8.25 7.9063 0 10.771-8.1355 2.8646-8.25 2.8646-29.563z"/>
			<path d="m801.25 158.87h32.313v74.25q0 11.229 2.0625 15.01t8.9376 3.7813q6.3021 0 9.5105-3.0938 3.3229-3.0938 4.0104-8.4792 0.68751-5.5 0.68751-22.458v-59.011h32.313v115.73h-30.365v-15.813q-6.875 11.802-13.75 15.01-6.7605 3.2084-16.042 3.2084-12.49 0-19.136-5.1563-6.6459-5.1563-8.5938-13.063-1.9479-7.9063-1.9479-24.636z"/>
			<path d="m912.05 158.87h28.417v27.958q7.6771-29.448 27.386-29.448 2.4063 0 5.5 0.57292v31.511q-3.5521-0.45833-5.3854-0.45833-23.604 0-23.604 35.75v49.844h-32.313z"/>
			<path d="m1060.9 186.72-23.031 6.875q-4.5834-15.698-16.958-15.698-10.083 0-10.083 10.083 0 5.7292 3.7812 8.7084 3.7813 2.9792 15.584 7.1042 13.292 4.6979 19.479 8.25 6.1876 3.5521 10.427 10.771 4.2396 7.1042 4.2396 16.386 0 16.042-11.573 26.927t-32.313 10.885q-39.073 0-43.313-34.49l25.667-4.125q3.2083 17.302 18.219 17.302 12.833 0 12.833-10.771 0-5.7292-3.7813-8.7084-3.7813-2.9792-14.667-6.4167-19.938-6.4167-27.386-15.469-7.448-9.0521-7.448-20.969 0-16.729 11.688-26.813 11.802-10.083 29.448-10.083 30.823 0 39.188 30.25z"/>
			<path d="m1166.8 222.12h-60.73v6.4167q0 15.583 4.2396 20.854 4.2396 5.2709 11.115 5.2709 14.781 0 16.615-19.823l28.761 1.8333q-7.6771 40.334-45.948 40.334-23.604 0-35.865-15.927-12.26-15.927-12.26-42.625 0-30.136 12.948-45.948 13.062-15.927 34.948-15.927 19.708 0 32.886 14.094 13.292 13.979 13.292 51.448zm-30.479-18.677q0.1146-2.0625 0.1146-3.2084 0-22.344-15.125-22.344-14.896 0-15.01 25.552z"/>
			<path d="m1259.2 186.72-23.031 6.875q-4.5833-15.698-16.958-15.698-10.083 0-10.083 10.083 0 5.7292 3.7813 8.7084 3.7813 2.9792 15.583 7.1042 13.292 4.6979 19.479 8.25 6.1875 3.5521 10.427 10.771 4.2396 7.1042 4.2396 16.386 0 16.042-11.573 26.927-11.573 10.885-32.313 10.885-39.073 0-43.313-34.49l25.667-4.125q3.2084 17.302 18.219 17.302 12.833 0 12.833-10.771 0-5.7292-3.7813-8.7084-3.7812-2.9792-14.667-6.4167-19.938-6.4167-27.386-15.469-7.4479-9.0521-7.4479-20.969 0-16.729 11.688-26.813 11.802-10.083 29.448-10.083 30.823 0 39.188 30.25z"/>
		</g>
	</g>
	<g fill="#ff8e14" stroke-width="2.023" aria-label="OPEN">
		<path d="m287.19 100.64q0 20.283-7.2438 30.656-7.2438 10.373-21.036 10.373-13.85 0-21.21-10.315-7.3597-10.373-7.3597-30.714 0-20.167 7.3018-30.54 7.3018-10.431 21.21-10.431 13.734 0 21.036 10.373 7.3018 10.315 7.3018 30.598zm-13.734 0q0-14.082-3.3032-22.137-3.2452-8.1131-11.416-8.1131-8.171 0-11.416 8.1131-3.2452 8.1131-3.2452 22.137 0 13.792 3.1873 22.021t11.648 8.229q7.9392 0 11.242-7.9392 3.3032-7.9972 3.3032-22.311z"/>
		<path d="m299.71 61.12h19.587q9.388 0 15.241 1.7965 5.853 1.7385 9.8516 7.8233 3.9986 6.0269 3.9986 14.546 0 7.8233-3.2452 13.445-3.2452 5.6212-8.7506 8.1131-5.4474 2.4919-16.806 2.4919h-6.7802v30.888h-13.097zm13.097 10.141v27.585h6.4905q8.6926 0 11.996-3.2452 3.3611-3.2452 3.3611-10.547 0-5.4474-2.2021-8.8085-2.2021-3.4191-4.8679-4.1724-2.6078-0.81131-8.2869-0.81131z"/>
		<path d="m358.35 61.12h45.317v10.489h-32.221v22.601h25.266v10.547h-25.266v24.745h32.742v10.721h-45.839z"/>
		<path d="m412.54 61.12h15.415l26.02 57.023v-57.023h10.953v79.103h-12.228l-29.207-63.34v63.34h-10.953z"/>
	</g>
	<g fill="none" stroke="#ff8e14" stroke-width="47.096">
		<path d="m62.827 169.42a71.88 69.58 0 0 1-71.88 69.58 71.88 69.58 0 0 1-71.88-69.58 71.88 69.58 0 0 1 71.88-69.58 71.88 69.58 0 0 1 71.88 69.58z" stop-color="#000000" style="font-variation-settings:normal"/>
		<path transform="rotate(-89.677)" d="m-168.83 114.55a71.88 69.58 0 0 1-71.88 69.58 71.88 69.58 0 0 1-71.88-69.58 71.88 69.58 0 0 1 71.88-69.58 71.88 69.58 0 0 1 71.88 69.58z" stop-color="#000000" style="font-variation-settings:normal"/>
		<path transform="rotate(90.323)" d="m168.75-114.98a71.88 69.58 0 0 1-71.88 69.58 71.88 69.58 0 0 1-71.88-69.58 71.88 69.58 0 0 1 71.88-69.58 71.88 69.58 0 0 1 71.88 69.58z" stop-color="#000000" style="font-variation-settings:normal"/>
	</g>
</svg>
